<svg id="Layer_1" data-name="Layer 1" xmlns="http://www.w3.org/2000/svg" viewBox="0 0 512 512"><title>user</title><path d="M145.91,159.47s7.82,32.57-7.94,3.18l-12.45-2.78-9.32-6.69-2.1-1.12C115,153,103,79.3,146.36,40.94c-.14.29,23.23-25,45.53-31.2-.67.47,53.59-20,110.05,4.3,27.79,11.38,55.2,39.05,71.23,59.84,16.44,20.49,24.28,39,24.71,44.64.13.33-16.5-36.83-45.8-64.25C323.47,25.82,285.88,13.7,281.5,16.06,281.23,16,314.67,26,342.13,52.3c28.24,25.27,45.6,62.74,44.56,70.42,0,.33-15-32.16-41.13-55.44-25.5-24.38-59-33.69-64.85-27.37-.19-.16,26.7,9.44,48.87,31.47,22.8,21.3,37.27,52.86,36.25,62.81.41-.21-9-20.76-13.93-23.5,1.43,3.41,2.63,7,3.87,10.44-3.12-4.11-6.34-8.06-9.75-11.8-1.4-3-3-5.81-4.61-8.7.54-.25,11.47,24.64,9.14,29.41-.55.8,11.32,1.93-19-24.62.18,1.14-15.52-11.75-55.35-20.9-19.39-4.26-44.36-1.94-69,12.48C182.63,111.08,160.2,122.8,145.91,159.47Z" fill="#231f20"/><path d="M227.88,2.46c-.08,0,5.35-8.18,5.19,5.26l2.15,10.77c1.67,2.66,3.25,5.3,4.77,7.94l-1.52,7.81c.09.23-3.25-.17-22.11,2.78-9.16,1.89-22.68,4.69-37.44,14.16-14.43,9.42-29.6,27-33.6,56.62.09,0-1.69,11.79.72,32a209,209,0,0,0,26.77,77.41,165,165,0,0,0,11.3,17.1c7.75,10.16,20.47,24.6,38.66,33.45a58,58,0,0,0,61.53-5.55c20.52-15.32,36.6-44.32,45.5-74.42s11.68-63.57,4.85-91.27C328.77,69.23,307.53,50.56,286.18,42c-21.85-8.35-45.27-6.77-62.71-4.64-17.64,2.31-30.13,5.28-35.13,5.94-.07.35,20.55-6.2,50.63-8.42C269.18,32,307,41.47,327,74.76c16.48,29,13.53,74.27,5.76,103.62-7.62,30.83-19.64,50.25-21.44,54.46-.23-.05,10.37-14.86,19.21-41.64C339.14,165,346,125.42,336.08,90.27a95.11,95.11,0,0,0-4.7-12.35L330,75l-.35-.72-.09-.2c.21.34-.55-.88.46.72l-.05-.08-.25-.35-1-1.44c-1.28-1.92-2.55-3.86-4-5.65a90.32,90.32,0,0,0-18.64-18.8c-13.79-10.35-30.35-15.2-45.86-16.73-31.36-2.66-56.31,3.79-62.42,3.75-.07.35,19.23-5.41,47.95-6.35C274.44,27.38,312,38.8,332,71.41c17.49,29.79,15.28,72.87,9.19,102.49-6.18,30.77-16.86,51.76-18.72,58.05a195.48,195.48,0,0,0,17.43-39.46c8-24.76,14.92-60.94,7.7-96.46-5.55-36-38-64-68.59-71.37-31.11-7.7-57-2.9-65.84-3.05a242.47,242.47,0,0,1,30.19-2.66,160.72,160.72,0,0,1,41.07,4.4,120.09,120.09,0,0,0-25.84-5.54c14.25.74,28.54,3.65,41.5,9.63a94.84,94.84,0,0,1,20,13.76c0,.1-12-11.41-28.43-18-16.15-7.08-34.82-8.73-37.14-9.73,0,0-7.84.55-.18,1,3.8.47,11.56.41,25.79,3.43,13.79,3.16,35.82,10.19,56.39,33.11-.92-.1,14.74,13.33,20.81,46,5.92,31.74,4.64,81.44-22.2,136.06-13.54,25.78-35.89,57.61-75.58,63.64-39.66,6.74-79.65-20.05-104.28-54.74-25.14-35.11-43.25-79.77-40.95-130.41,1.52-24.94,10.06-52.8,31.49-74.14C167,15.83,198.3,5.24,227.88,2.46Z" fill="#231f20"/><path d="M170.65,283.51s-7.93,2.22,5.32-1.87l10.59-3.41,7.69-2.79,7.75-2.34c-.19.13,2.91-.07,9.8,11.11,0-.08,5.58,4.29,5.84,10.89a113.94,113.94,0,0,1-2.42,22.65c-2.23,10.93-5.76,20.94-8.36,22.11.09.34,10.4-24.08,8-26.46.34.49-8.42,24.1-13.21,24.91.1.29,9.68-22.19,3.92-25,.26.3-8.31,20.79-14.42,22.32,0,0,2.82-3.66,2.29-4.81l-2,1.62.64-2.93,1.52-1.55s-4.47,4.14-6.48,4.2c0,0,2.08,2.42,2.31-6,0,0,4.15-4.52,4.3-13.27C194.07,304.83,189.27,289.16,170.65,283.51Z" fill="#231f20"/><path d="M284.38,264.35s-7.93-2.34,5.6.87l10.87,2.36,8,1.48,7.86,2c.11,0,1.78,1.71,4.34,13.47.05,0,3.72,5,3.24,10.89-1.38-.42-3.4,43.89-6.47,48.17-.45-.2,4.6-28.85,3-30.36-.56-.22-4.84,27.16-8.47,30-.41-.19,4.32-27.25-.82-29.5-.45-.18-5.28,25.14-10.09,29.07,0,0,1.65-5.18.91-6.43l-1.48,2.47-.09-3.75,1.15-2.26s-3.47,6.14-5.31,6.76c.06,0,2.47,2.48.82-8.1,0,0,2.85-6.48,2.28-17.39C299.32,302.89,295.07,288.3,284.38,264.35Z" fill="#231f20"/><path d="M192,311.4s2.75-7.71.75,5.57l-.92,10.74.32,8-1.6,7.71c.36,1-5-1-43.86,5.47,0,.27-15.11,5.25-32.71,12.39.32-.29-34.34,11.8-51.9,45.23C43.25,438.73,43,481.78,40.9,487.31c0,.09.36-24.68,7.14-47.84,6.13-23.63,20-42.82,20.84-45.43a132,132,0,0,0-21.2,38.85c-8.12,22-10.19,47.63-12.33,51.3.18,0,.69-23.26,6.76-45.89,5.47-22.93,17.84-43.19,18-47.72a143.48,143.48,0,0,0-21,37.39c-8.45,21-11.85,45.6-14.57,50.94-.19-.07,2.64-16.81,2.61-21.28l-2.36,7.71c.43-4.22.78-8.44,1.43-12.63l2.3-7.08c-.22-.13-6.35,19.26-8.08,20.71.61.05.37,9.19,4.77-26.91.71.3,4.81-21.64,24.19-53.82a144,144,0,0,1,49.65-47.84C123,323.48,155.33,314.34,192,311.4Z" fill="#231f20"/><path d="M313.46,353.83s-.19,8.09-2-5.23L309.34,338l-2.62-7.62L306,322.6c.38,1.18,2.58-5.93,50.73-8-.26.38,20.32-3.71,46.4,6.61-.18.25,11.95,4.19,27.47,15.32,15.67,10.67,33.35,29.74,44,52,22.24,45,17.12,93.85,14.66,99.72-.09.06,3.47-27.16-1.47-56.1-3.95-29.12-20.32-57.53-23.81-59.66.1-.23,15.74,24.74,20.2,52.61,5.44,27.7,2.06,55.67-.17,59.44-.23.05,2.79-24.84-2.14-51.15-4.12-26.47-19-52.15-24.33-54.11.05-.14,12.63,21,16.53,45.19,4.64,24.05,2,49.24-.87,54.43.19,0,1.86-16.93.5-21.39l-1.05,8c-.24-4.19-.45-8.39-.93-12.56l.28-7.4c.24.07-1.36,20-3.59,21.42-.57.06,4.24,8.56-1.71-26.11-.65.56,2-22.43-18.28-54.06a97.45,97.45,0,0,0-52.67-38.68C371.3,340.39,341.56,342.35,313.46,353.83Z" fill="#231f20"/><path d="M33,509.64s-2.41,8-2.26-5.44l-1-10.76-2.41-7.88.71-7.83s6.34-2.24,76.85-6.72a469.84,469.84,0,0,1,66.24-4.46s275.87,2.27,296.59,7c0,0-173-6.74-183.87-4.6,0,0,165.43,5.52,178.12,9.8,0,0-160.46-6.33-174.73-.86,0,0,147.69,5.82,165.57,11.28,0,0-28.35-2.16-35.93-1.51l13.2,1.63-21.26-.22-12.27-1.26s33.29,3.74,35.59,5.64c0,0,15.2-2.26-44.89-1.41C387.29,492.05,245.19,478.86,33,509.64Z" fill="#231f20"/></svg>